stateDiagram-v2
	direction LR
	[*] --> Active

	state Active {
		[*] --> NumLockOff
		NumLockOff --> NumLockOn : EvNumLockPressed
		NumLockOn --> NumLockOff : EvNumLockPressed
		--
		[*] --> CapsLockOff
		CapsLockOff --> CapsLockOn : EvCapsLockPressed
		CapsLockOn --> CapsLockOff : EvCapsLockPressed
		--
		[*] --> ScrollLockOff
		ScrollLockOff --> ScrollLockOn : EvScrollLockPressed
		ScrollLockOn --> ScrollLockOff : EvScrollLockPressed
	}
